<?xml version="1.0" encoding="UTF-8"?>
<svg width="17px" height="18px" viewBox="0 0 17 18" version="1.1" xmlns="http://www.w3.org/2000/svg" xmlns:xlink="http://www.w3.org/1999/xlink">
    <!-- Generator: Sketch 41 (35326) - http://www.bohemiancoding.com/sketch -->
    <title>Forme</title>
    <desc>Created with Sketch.</desc>
    <defs></defs>
    <g id="Page-1" stroke="none" stroke-width="1" fill="none" fill-rule="evenodd">
        <path d="M16.59,16.944 C16.1999625,17.3317236 15.5700375,17.3317236 15.18,16.944 L11.98,13.744 C8.88810272,15.960695 4.60806541,15.4066661 2.18249816,12.4757637 C-0.243069078,9.54486132 0.0131196437,5.23672544 2.76894386,2.61394101 C5.52476808,-0.00884341408 9.84030148,-0.051725829 12.6477003,2.51577819 C15.4550992,5.08328221 15.7968467,9.38547655 13.43,12.364 L16.59,15.525 C16.7790048,15.7127275 16.8852946,15.9681085 16.8852946,16.2345 C16.8852946,16.5008915 16.7790048,16.7562725 16.59,16.944 L16.59,16.944 Z M8,3 C5.23857625,3 3,5.23857625 3,8 C3,10.7614237 5.23857625,13 8,13 C10.7614237,13 13,10.7614237 13,8 C13,5.23857625 10.7614237,3 8,3 Z" id="Forme" fill="#1C1C1D"></path>
    </g>
</svg>